<svg width="14.4" height="8.8" viewBox="0 0 18 11" fill="none" xmlns="http://www.w3.org/2000/svg">
    <path d="M5.38255 0.318182H7.51039V7.41761C7.51039 8.07386 7.3629 8.64394 7.06792 9.12784C6.77625 9.61174 6.37024 9.98461 5.84988 10.2464C5.32952 10.5083 4.72464 10.6392 4.03525 10.6392C3.42208 10.6392 2.86526 10.5315 2.36479 10.3161C1.86763 10.0973 1.47322 9.76586 1.18155 9.32173C0.889885 8.87429 0.745709 8.3125 0.749023 7.63636H2.89178C2.89841 7.90483 2.9531 8.13518 3.05584 8.32741C3.1619 8.51634 3.30608 8.66217 3.48837 8.76491C3.67398 8.86435 3.89273 8.91406 4.14462 8.91406C4.40977 8.91406 4.63349 8.85772 4.81578 8.74503C5.00139 8.62902 5.14225 8.45999 5.23837 8.23793C5.33449 8.01586 5.38255 7.74242 5.38255 7.41761V0.318182ZM14.8137 3.24645C14.7739 2.84541 14.6032 2.53385 14.3016 2.31179C14 2.08972 13.5906 1.97869 13.0736 1.97869C12.7223 1.97869 12.4256 2.02841 12.1837 2.12784C11.9417 2.22396 11.7561 2.35819 11.6269 2.53054C11.5009 2.70289 11.4379 2.89844 11.4379 3.11719C11.4313 3.29948 11.4694 3.45857 11.5523 3.59446C11.6385 3.73035 11.7561 3.84801 11.9053 3.94744C12.0544 4.04356 12.2268 4.12808 12.4223 4.20099C12.6179 4.2706 12.8267 4.33026 13.0487 4.37997L13.9635 4.59872C14.4076 4.69815 14.8153 4.83073 15.1865 4.99645C15.5577 5.16217 15.8792 5.366 16.151 5.60795C16.4228 5.84991 16.6333 6.13494 16.7824 6.46307C16.9349 6.79119 17.0128 7.16738 17.0161 7.59162C17.0128 8.21473 16.8537 8.75497 16.5388 9.21236C16.2272 9.66643 15.7765 10.0194 15.1865 10.2713C14.5999 10.5199 13.8923 10.6442 13.0637 10.6442C12.2417 10.6442 11.5258 10.5182 10.9159 10.2663C10.3094 10.0144 9.83543 9.64157 9.49405 9.14773C9.15598 8.65057 8.97866 8.03575 8.96209 7.30327H11.0452C11.0684 7.64465 11.1662 7.92969 11.3385 8.15838C11.5142 8.38376 11.7478 8.55445 12.0395 8.67045C12.3345 8.78314 12.6676 8.83949 13.0388 8.83949C13.4034 8.83949 13.7199 8.78646 13.9884 8.6804C14.2602 8.57434 14.4706 8.42685 14.6198 8.23793C14.7689 8.04901 14.8435 7.83191 14.8435 7.58665C14.8435 7.35795 14.7755 7.16572 14.6396 7.00994C14.5071 6.85417 14.3115 6.72159 14.053 6.61222C13.7978 6.50284 13.4846 6.40341 13.1134 6.31392L12.0047 6.03551C11.1463 5.8267 10.4685 5.50024 9.97132 5.05611C9.47417 4.61198 9.22724 4.01373 9.23056 3.26136C9.22724 2.64489 9.39131 2.1063 9.72275 1.6456C10.0575 1.1849 10.5165 0.825284 11.0999 0.566761C11.6832 0.308238 12.3461 0.178977 13.0885 0.178977C13.8442 0.178977 14.5038 0.308238 15.0672 0.566761C15.634 0.825284 16.0748 1.1849 16.3896 1.6456C16.7045 2.1063 16.8669 2.63991 16.8769 3.24645H14.8137Z" fill="#F59E0B"/>
</svg>