<svg width="14.4" height="8.8" viewBox="0 0 18 11" fill="none" xmlns="http://www.w3.org/2000/svg">
    <path d="M0.234464 2.09304V0.318182H8.59668V2.09304H5.47949V10.5H3.35165V2.09304H0.234464ZM15.4972 3.24645C15.4575 2.84541 15.2868 2.53385 14.9852 2.31179C14.6836 2.08972 14.2742 1.97869 13.7572 1.97869C13.4059 1.97869 13.1092 2.02841 12.8673 2.12784C12.6253 2.22396 12.4397 2.35819 12.3105 2.53054C12.1845 2.70289 12.1215 2.89844 12.1215 3.11719C12.1149 3.29948 12.153 3.45857 12.2359 3.59446C12.3221 3.73035 12.4397 3.84801 12.5889 3.94744C12.738 4.04356 12.9104 4.12808 13.1059 4.20099C13.3015 4.2706 13.5103 4.33026 13.7323 4.37997L14.6471 4.59872C15.0912 4.69815 15.4989 4.83073 15.8701 4.99645C16.2413 5.16217 16.5628 5.366 16.8346 5.60795C17.1064 5.84991 17.3169 6.13494 17.466 6.46307C17.6185 6.79119 17.6963 7.16738 17.6997 7.59162C17.6963 8.21473 17.5373 8.75497 17.2224 9.21236C16.9108 9.66643 16.4601 10.0194 15.8701 10.2713C15.2835 10.5199 14.5758 10.6442 13.7472 10.6442C12.9253 10.6442 12.2094 10.5182 11.5995 10.2663C10.993 10.0144 10.519 9.64157 10.1776 9.14773C9.83958 8.65057 9.66226 8.03575 9.64569 7.30327H11.7288C11.752 7.64465 11.8498 7.92969 12.0221 8.15838C12.1978 8.38376 12.4314 8.55445 12.7231 8.67045C13.0181 8.78314 13.3512 8.83949 13.7224 8.83949C14.087 8.83949 14.4035 8.78646 14.672 8.6804C14.9437 8.57434 15.1542 8.42685 15.3034 8.23793C15.4525 8.04901 15.5271 7.83191 15.5271 7.58665C15.5271 7.35795 15.4591 7.16572 15.3232 7.00994C15.1907 6.85417 14.9951 6.72159 14.7366 6.61222C14.4814 6.50284 14.1682 6.40341 13.797 6.31392L12.6883 6.03551C11.8299 5.8267 11.1521 5.50024 10.6549 5.05611C10.1578 4.61198 9.91084 4.01373 9.91415 3.26136C9.91084 2.64489 10.0749 2.1063 10.4063 1.6456C10.7411 1.1849 11.2001 0.825284 11.7835 0.566761C12.3668 0.308238 13.0297 0.178977 13.7721 0.178977C14.5278 0.178977 15.1874 0.308238 15.7508 0.566761C16.3176 0.825284 16.7584 1.1849 17.0732 1.6456C17.3881 2.1063 17.5505 2.63991 17.5605 3.24645H15.4972Z" fill="#2563EB"/>
</svg>